<svg width="1920" height="373" viewBox="0 0 1920 373" fill="none" xmlns="http://www.w3.org/2000/svg">
<path d="M1320 346H588V347H1320V346Z" fill="url(#paint0_linear_1600_915)"/>
<path d="M1347 331H561V332H1347V331Z" fill="url(#paint1_linear_1600_915)"/>
<path d="M1380 313H530V314H1380V313Z" fill="url(#paint2_linear_1600_915)"/>
<path d="M1417 292H492V293H1417V292Z" fill="url(#paint3_linear_1600_915)"/>
<path d="M1461 267H447V268H1461V267Z" fill="url(#paint4_linear_1600_915)"/>
<path d="M1515 237H394V238H1515V237Z" fill="url(#paint5_linear_1600_915)"/>
<path d="M1585 199H326V200H1585V199Z" fill="url(#paint6_linear_1600_915)"/>
<path d="M1669 151H242V153H1669V151Z" fill="url(#paint7_linear_1600_915)"/>
<path d="M1779 88H131V90H1779V88Z" fill="url(#paint8_linear_1600_915)"/>
<path d="M1934.24 2.18555L1275.04 371.011L1275.93 372.233L1935.13 3.40632L1934.24 2.18555Z" fill="url(#paint9_linear_1600_915)"/>
<path d="M1230.37 372.43L1229.38 371.265L1794.11 1.96484L1795.09 3.12852L1230.37 372.43Z" fill="url(#paint10_linear_1600_915)"/>
<path d="M1654.19 2.05469L1183.62 371.392L1184.73 372.47L1655.3 3.13305L1654.19 2.05469Z" fill="url(#paint11_linear_1600_915)"/>
<path d="M1513.92 1.82422L1137.85 371.446L1139.09 372.407L1515.16 2.78729L1513.92 1.82422Z" fill="url(#paint12_linear_1600_915)"/>
<path d="M1374.43 2.27148L1091.84 371.436L1093.22 372.242L1375.81 3.07732L1374.43 2.27148Z" fill="url(#paint13_linear_1600_915)"/>
<path d="M1234.51 2.3418L1045.84 371.475L1047.36 372.067L1236.03 2.93284L1234.51 2.3418Z" fill="url(#paint14_linear_1600_915)"/>
<path d="M1094.23 2.36133L1000.19 371.679L1001.81 371.993L1095.85 2.67609L1094.23 2.36133Z" fill="url(#paint15_linear_1600_915)"/>
<path d="M956.086 2.54688H954.426V371.847H956.086V2.54688Z" fill="url(#paint16_linear_1600_915)"/>
<path d="M819.787 0L818.16 0.318933L913.445 371.096L915.073 370.776L819.787 0Z" fill="url(#paint17_linear_1600_915)"/>
<path d="M676.247 2.27148L674.73 2.86113L862.962 372.167L864.478 371.577L676.247 2.27148Z" fill="url(#paint18_linear_1600_915)"/>
<path d="M536.27 2.13672L534.891 2.94196L817.261 372.237L818.642 371.43L536.27 2.13672Z" fill="url(#paint19_linear_1600_915)"/>
<path d="M396.28 2.03516L395.039 2.99935L771.554 372.276L772.793 371.313L396.28 2.03516Z" fill="url(#paint20_linear_1600_915)"/>
<path d="M256.324 1.99023L255.215 3.06879L725.854 372.333L726.964 371.255L256.324 1.99023Z" fill="url(#paint21_linear_1600_915)"/>
<path d="M116.424 1.96484L115.43 3.12536L680.151 372.433L681.146 371.272L116.424 1.96484Z" fill="url(#paint22_linear_1600_915)"/>
<path d="M-23.182 2.51758L-24.0781 3.73532L633.495 373.001L634.39 371.782L-23.182 2.51758Z" fill="url(#paint23_linear_1600_915)"/>
<defs>
<linearGradient id="paint0_linear_1600_915" x1="954" y1="346" x2="954" y2="347" gradientUnits="userSpaceOnUse">
<stop stop-color="#543DE7"/>
<stop offset="1" stop-color="#7F39F8"/>
</linearGradient>
<linearGradient id="paint1_linear_1600_915" x1="954" y1="331" x2="954" y2="332" gradientUnits="userSpaceOnUse">
<stop stop-color="#543DE7"/>
<stop offset="1" stop-color="#7F39F8"/>
</linearGradient>
<linearGradient id="paint2_linear_1600_915" x1="955" y1="313" x2="955" y2="314" gradientUnits="userSpaceOnUse">
<stop stop-color="#543DE7"/>
<stop offset="1" stop-color="#7F39F8"/>
</linearGradient>
<linearGradient id="paint3_linear_1600_915" x1="954.5" y1="292" x2="954.5" y2="293" gradientUnits="userSpaceOnUse">
<stop stop-color="#543DE7"/>
<stop offset="1" stop-color="#7F39F8"/>
</linearGradient>
<linearGradient id="paint4_linear_1600_915" x1="954" y1="267" x2="954" y2="268" gradientUnits="userSpaceOnUse">
<stop stop-color="#543DE7"/>
<stop offset="1" stop-color="#7F39F8"/>
</linearGradient>
<linearGradient id="paint5_linear_1600_915" x1="954.5" y1="237" x2="954.5" y2="238" gradientUnits="userSpaceOnUse">
<stop stop-color="#543DE7"/>
<stop offset="1" stop-color="#7F39F8"/>
</linearGradient>
<linearGradient id="paint6_linear_1600_915" x1="955.5" y1="199" x2="955.5" y2="200" gradientUnits="userSpaceOnUse">
<stop stop-color="#543DE7"/>
<stop offset="1" stop-color="#7F39F8"/>
</linearGradient>
<linearGradient id="paint7_linear_1600_915" x1="955.5" y1="151" x2="955.5" y2="153" gradientUnits="userSpaceOnUse">
<stop stop-color="#543DE7"/>
<stop offset="1" stop-color="#7F39F8"/>
</linearGradient>
<linearGradient id="paint8_linear_1600_915" x1="955" y1="88" x2="955" y2="90" gradientUnits="userSpaceOnUse">
<stop stop-color="#543DE7"/>
<stop offset="1" stop-color="#7F39F8"/>
</linearGradient>
<linearGradient id="paint9_linear_1600_915" x1="1605.08" y1="2.18555" x2="1605.08" y2="372.233" gradientUnits="userSpaceOnUse">
<stop stop-color="#543DE7"/>
<stop offset="1" stop-color="#7F39F8"/>
</linearGradient>
<linearGradient id="paint10_linear_1600_915" x1="1512.24" y1="1.96484" x2="1512.24" y2="372.43" gradientUnits="userSpaceOnUse">
<stop stop-color="#543DE7"/>
<stop offset="1" stop-color="#7F39F8"/>
</linearGradient>
<linearGradient id="paint11_linear_1600_915" x1="1419.46" y1="2.05469" x2="1419.46" y2="372.47" gradientUnits="userSpaceOnUse">
<stop stop-color="#543DE7"/>
<stop offset="1" stop-color="#7F39F8"/>
</linearGradient>
<linearGradient id="paint12_linear_1600_915" x1="1326.5" y1="1.82422" x2="1326.5" y2="372.407" gradientUnits="userSpaceOnUse">
<stop stop-color="#543DE7"/>
<stop offset="1" stop-color="#7F39F8"/>
</linearGradient>
<linearGradient id="paint13_linear_1600_915" x1="1233.82" y1="2.27148" x2="1233.82" y2="372.242" gradientUnits="userSpaceOnUse">
<stop stop-color="#543DE7"/>
<stop offset="1" stop-color="#7F39F8"/>
</linearGradient>
<linearGradient id="paint14_linear_1600_915" x1="1140.93" y1="2.3418" x2="1140.93" y2="372.067" gradientUnits="userSpaceOnUse">
<stop stop-color="#543DE7"/>
<stop offset="1" stop-color="#7F39F8"/>
</linearGradient>
<linearGradient id="paint15_linear_1600_915" x1="1048.02" y1="2.36133" x2="1048.02" y2="371.993" gradientUnits="userSpaceOnUse">
<stop stop-color="#543DE7"/>
<stop offset="1" stop-color="#7F39F8"/>
</linearGradient>
<linearGradient id="paint16_linear_1600_915" x1="955.256" y1="2.54687" x2="955.256" y2="371.847" gradientUnits="userSpaceOnUse">
<stop stop-color="#543DE7"/>
<stop offset="1" stop-color="#7F39F8"/>
</linearGradient>
<linearGradient id="paint17_linear_1600_915" x1="866.616" y1="0" x2="866.616" y2="371.096" gradientUnits="userSpaceOnUse">
<stop stop-color="#543DE7"/>
<stop offset="1" stop-color="#7F39F8"/>
</linearGradient>
<linearGradient id="paint18_linear_1600_915" x1="769.604" y1="2.27148" x2="769.604" y2="372.167" gradientUnits="userSpaceOnUse">
<stop stop-color="#543DE7"/>
<stop offset="1" stop-color="#7F39F8"/>
</linearGradient>
<linearGradient id="paint19_linear_1600_915" x1="676.767" y1="2.13672" x2="676.767" y2="372.237" gradientUnits="userSpaceOnUse">
<stop stop-color="#543DE7"/>
<stop offset="1" stop-color="#7F39F8"/>
</linearGradient>
<linearGradient id="paint20_linear_1600_915" x1="583.916" y1="2.03516" x2="583.916" y2="372.276" gradientUnits="userSpaceOnUse">
<stop stop-color="#543DE7"/>
<stop offset="1" stop-color="#7F39F8"/>
</linearGradient>
<linearGradient id="paint21_linear_1600_915" x1="491.089" y1="1.99023" x2="491.089" y2="372.333" gradientUnits="userSpaceOnUse">
<stop stop-color="#543DE7"/>
<stop offset="1" stop-color="#7F39F8"/>
</linearGradient>
<linearGradient id="paint22_linear_1600_915" x1="398.288" y1="1.96484" x2="398.288" y2="372.433" gradientUnits="userSpaceOnUse">
<stop stop-color="#543DE7"/>
<stop offset="1" stop-color="#7F39F8"/>
</linearGradient>
<linearGradient id="paint23_linear_1600_915" x1="305.156" y1="2.51758" x2="305.156" y2="373.001" gradientUnits="userSpaceOnUse">
<stop stop-color="#543DE7"/>
<stop offset="1" stop-color="#7F39F8"/>
</linearGradient>
</defs>
</svg>
