<svg width="113" height="81" viewBox="0 0 113 81" fill="none" xmlns="http://www.w3.org/2000/svg">
<path d="M99.6872 76.9256C97.6775 79.3386 94.6998 80.7345 91.5594 80.7357H11.1278C7.98741 80.7345 5.00973 79.3386 3 76.9256L41.8188 44.582L45.8405 47.3338C49.1533 49.6199 53.5341 49.6199 56.8469 47.3338L60.8686 44.582L99.6872 76.9256Z" fill="#1E88E5"/>
<path d="M100.271 17.6147L60.8594 44.5817L56.8377 47.3335C53.5249 49.6195 49.1441 49.6195 45.8312 47.3335L41.8096 44.5817L2.39844 17.5723C4.38158 14.7125 7.63885 13.0047 11.119 13.0001H91.5504C95.0462 12.9817 98.3195 14.7137 100.271 17.6147Z" fill="#64B5F6"/>
<path d="M41.8172 44.5756L2.99837 76.9192C1.40951 75.0201 0.54018 72.6219 0.543157 70.1457V23.5778C0.530259 21.4301 1.18092 19.3306 2.40585 17.5664L41.8172 44.5756Z" fill="#2196F3"/>
<path d="M102.137 23.5746V70.1425C102.14 72.6187 101.271 75.0169 99.6821 76.916L60.8633 44.5724L100.275 17.6055C101.493 19.3569 102.144 21.4408 102.137 23.5746Z" fill="#2196F3"/>
<path d="M111.638 19.128C111.638 28.7303 103.854 36.5144 94.2521 36.5144C84.6504 36.5144 76.8665 28.7303 76.8665 19.128C76.8665 9.52567 84.6504 1.74154 94.2521 1.74154C103.854 1.74154 111.638 9.52567 111.638 19.128Z" fill="#FF4848" stroke="white" stroke-width="2.01432"/>
<path d="M89.2847 12.3367V26.7539H86.2365V15.23H86.152L82.8504 17.2997V14.5964L86.4195 12.3367H89.2847ZM98.364 27.0707C97.1532 27.066 96.1114 26.768 95.2384 26.1767C94.3702 25.5853 93.7014 24.7288 93.2321 23.6072C92.7675 22.4855 92.5376 21.1363 92.5423 19.5594C92.5423 17.9872 92.7746 16.6473 93.2392 15.5397C93.7085 14.4322 94.3773 13.5898 95.2455 13.0125C96.1184 12.4306 97.1579 12.1396 98.364 12.1396C99.5702 12.1396 100.607 12.4306 101.476 13.0125C102.348 13.5945 103.02 14.4392 103.489 15.5468C103.958 16.6497 104.191 17.9872 104.186 19.5594C104.186 21.141 103.951 22.4926 103.482 23.6142C103.017 24.7359 102.351 25.5924 101.483 26.1837C100.614 26.775 99.5749 27.0707 98.364 27.0707ZM98.364 24.5435C99.19 24.5435 99.8494 24.1281 100.342 23.2974C100.835 22.4668 101.079 21.2207 101.074 19.5594C101.074 18.4659 100.962 17.5554 100.736 16.828C100.516 16.1006 100.201 15.5538 99.7931 15.1878C99.3895 14.8217 98.9131 14.6387 98.364 14.6387C97.5428 14.6387 96.8857 15.0493 96.3929 15.8706C95.9002 16.6919 95.6514 17.9215 95.6467 19.5594C95.6467 20.667 95.757 21.5915 95.9776 22.333C96.2029 23.0698 96.5197 23.6236 96.928 23.9944C97.3363 24.3604 97.815 24.5435 98.364 24.5435Z" fill="white"/>
</svg>
