<svg width="213" height="60" viewBox="0 0 213 60" fill="none" xmlns="http://www.w3.org/2000/svg">
<g clip-path="url(#clip0_1440_659)">
<path d="M55.2109 0H64.862V60H55.2109V0ZM98.6408 40.86C98.6408 50.0424 90.8789 50.7744 88.5699 50.7744C82.801 50.7744 81.7514 45.4032 81.7514 42.1632V19.2H72.1003V42.1152C72.1003 47.8032 73.8954 52.4976 77.0417 55.6272C79.8212 58.3944 83.9856 59.9064 88.4975 59.9064C91.6969 59.9064 96.228 58.9152 98.6408 56.724V60H108.292V19.2H98.6408V40.86ZM127.594 4.8H117.943V19.2H110.705V28.8H117.943V60H127.594V28.8H134.832V19.2H127.594V4.8ZM165.226 47.8008C163.125 49.68 160.35 50.7216 157.305 50.7216C150.593 50.7216 145.663 45.8184 145.663 39.0864C145.663 32.3544 150.436 27.6576 157.305 27.6576C160.297 27.6576 163.125 28.6488 165.279 30.528L166.744 31.7808L173.251 25.3104L171.622 23.8488C167.793 20.4096 162.71 18.48 157.302 18.48C145.239 18.48 136.478 27.1392 136.478 39.036C136.478 50.8824 145.449 59.8512 157.302 59.8512C162.811 59.8512 167.948 57.9216 171.728 54.4272L173.302 52.9656L166.693 46.5L165.226 47.8008ZM207.698 22.7568C204.919 19.992 201.661 18.48 197.149 18.48C193.95 18.48 190.326 19.4712 187.913 21.66V0H178.262V60H187.913V37.524C187.913 28.3416 194.471 27.612 196.78 27.612C202.549 27.612 202.39 32.9856 202.39 36.2208V60H212.041V36.2712C212.041 30.5832 210.847 25.8888 207.698 22.7568Z" fill="white"/>
<path d="M156.986 32.252C158.836 32.252 160.611 32.9832 161.92 34.2849C163.228 35.5865 163.963 37.3519 163.963 39.1928C163.963 41.0336 163.228 42.799 161.92 44.1006C160.611 45.4023 158.836 46.1336 156.986 46.1336C155.135 46.1336 153.36 45.4023 152.052 44.1006C150.743 42.799 150.008 41.0336 150.008 39.1928C150.008 37.3519 150.743 35.5865 152.052 34.2849C153.36 32.9832 155.135 32.252 156.986 32.252Z" fill="#FF3D2E"/>
<path d="M41.7015 44.9301C38.0317 48.6861 33.0469 50.7213 27.8015 50.7213C17.0502 50.7213 9.23287 42.3213 9.23287 30.7917C9.23287 19.2093 17.0502 10.8093 27.8015 10.8093C32.9962 10.8093 37.9255 12.8421 41.6508 16.5477L43.1178 18.0093L49.5696 11.5917L48.1533 10.1301C42.8041 4.65089 35.5658 1.67969 27.8015 1.67969C11.9617 1.67969 0.0546875 14.2005 0.0546875 30.8421C0.0546875 47.4333 12.0148 59.9037 27.8015 59.9037C35.6189 59.9037 42.8572 56.8797 48.2063 51.4005L49.6226 49.9389L43.224 43.4181L41.7015 44.9301Z" fill="white"/>
</g>
<defs>
<clipPath id="clip0_1440_659">
<rect width="212.093" height="60" fill="white"/>
</clipPath>
</defs>
</svg>
