<svg width="354" height="100" viewBox="0 0 354 100" fill="none" xmlns="http://www.w3.org/2000/svg">
<g clip-path="url(#clip0_1324_739)">
<path d="M92.0195 0H108.105V100H92.0195V0ZM164.403 68.1C164.403 83.404 151.466 84.624 147.618 84.624C138.003 84.624 136.254 75.672 136.254 70.272V32H120.169V70.192C120.169 79.672 123.16 87.496 128.404 92.712C133.037 97.324 139.977 99.844 147.497 99.844C152.829 99.844 160.381 98.192 164.403 94.54V100H180.488V32H164.403V68.1ZM212.658 8H196.573V32H184.509V48H196.573V100H212.658V48H224.722V32H212.658V8ZM275.378 79.668C271.875 82.8 267.251 84.536 262.176 84.536C250.989 84.536 242.773 76.364 242.773 65.144C242.773 53.924 250.728 46.096 262.176 46.096C267.163 46.096 271.875 47.748 275.466 50.88L277.907 52.968L288.753 42.184L286.038 39.748C279.657 34.016 271.184 30.8 262.172 30.8C242.066 30.8 227.464 45.232 227.464 65.06C227.464 84.804 242.416 99.752 262.172 99.752C271.353 99.752 279.914 96.536 286.215 90.712L288.837 88.276L277.823 77.5L275.378 79.668ZM346.165 37.928C341.532 33.32 336.103 30.8 328.584 30.8C323.251 30.8 317.211 32.452 313.19 36.1V0H297.105V100H313.19V62.54C313.19 47.236 324.12 46.02 327.968 46.02C337.583 46.02 337.318 54.976 337.318 60.368V100H353.403V60.452C353.403 50.972 351.412 43.148 346.165 37.928Z" fill="#0F2C36"/>
<path d="M261.645 53.7529C264.73 53.7529 267.688 54.9717 269.869 57.1411C272.049 59.3105 273.275 62.2529 273.275 65.3209C273.275 68.389 272.049 71.3313 269.869 73.5007C267.688 75.6702 264.73 76.8889 261.645 76.8889C258.561 76.8889 255.603 75.6702 253.422 73.5007C251.241 71.3313 250.016 68.389 250.016 65.3209C250.016 62.2529 251.241 59.3105 253.422 57.1411C255.603 54.9717 258.561 53.7529 261.645 53.7529Z" fill="#FF3D2E"/>
<path d="M69.5051 74.8838C63.3888 81.1438 55.0808 84.5358 46.3385 84.5358C28.4197 84.5358 15.3907 70.5358 15.3907 51.3198C15.3907 32.0158 28.4197 18.0158 46.3385 18.0158C54.9963 18.0158 63.2118 21.4038 69.4207 27.5798L71.8656 30.0158L82.6185 19.3198L80.258 16.8838C71.3429 7.75181 59.279 2.7998 46.3385 2.7998C19.9388 2.7998 0.09375 23.6678 0.09375 51.4038C0.09375 79.0558 20.0273 99.8398 46.3385 99.8398C59.3675 99.8398 71.4313 94.7998 80.3465 85.6678L82.707 83.2318L72.0426 72.3638L69.5051 74.8838Z" fill="#0F2C36"/>
</g>
<defs>
<clipPath id="clip0_1324_739">
<rect width="353.488" height="100" fill="white"/>
</clipPath>
</defs>
</svg>
