<svg width="63" height="63" viewBox="0 0 63 63" fill="none" xmlns="http://www.w3.org/2000/svg">
<path d="M56.483 20.5575L56.1167 13.2136C56.0747 12.404 55.522 11.7095 54.7347 11.4956L47.6446 9.56901L43.6533 3.39175C43.2125 2.70924 42.3832 2.39097 41.5977 2.59859L34.4871 4.47695L27.9504 1.12121C27.2278 0.747596 26.3343 0.896336 25.7752 1.45893L20.5566 6.64594L13.2126 7.01228C12.3982 7.05231 11.7135 7.6089 11.4981 8.39271L9.57305 15.4863L3.39578 19.4775C2.71671 19.9169 2.39501 20.7477 2.60111 21.5298L4.47948 28.6403L1.12525 35.1805C0.755063 35.9015 0.892797 36.7794 1.46296 37.3556L6.64503 42.5723L7.01137 49.9163C7.04988 50.7273 7.60951 51.4189 8.39181 51.6308L15.4839 53.5525L19.4751 59.7297C19.916 60.4122 20.7433 60.7355 21.5289 60.5278L28.6394 58.6495L35.1781 62.0003C35.9056 62.3758 36.782 62.2346 37.3566 61.661L42.5714 56.4839L49.9154 56.1176C50.1477 56.1052 50.3701 56.052 50.5794 55.9596C51.0836 55.7368 51.4824 55.2942 51.6318 54.7322L53.555 47.6436L59.7323 43.6523C60.4148 43.2115 60.7365 42.3807 60.5288 41.5952L58.6505 34.4846L62.0028 27.9493C62.3749 27.2234 62.2352 26.3504 61.6651 25.7742L56.483 20.5575Z" fill="#F44336"/>
</svg>
