<svg width="357" height="101" viewBox="0 0 357 101" fill="none" xmlns="http://www.w3.org/2000/svg">
<path fill-rule="evenodd" clip-rule="evenodd" d="M350.531 54.6152C351.281 53.74 352.612 53.78 353.295 54.7135H353.29L355.89 58.2684C356.383 58.9515 356.38 59.894 355.865 60.5591C351.351 66.414 343.443 72.0496 333.9 72.5947C326.368 73.0232 320.156 70.1696 316.775 64.7747C316.105 63.7076 314.629 63.6452 313.878 64.6544C309.866 70.0399 305.012 74.2515 299.954 74.5415C290.946 75.0552 288.402 69.0132 290.629 55.6915C290.853 54.3652 289.69 53.2444 288.438 53.5747C286.57 54.0703 284.587 54.2891 282.575 54.1152C281.738 54.0435 280.953 54.5528 280.7 55.3832C277.366 66.3335 269.432 76.5199 259.163 77.1096C252.607 77.4847 242.814 73.7287 243.793 58.0359C243.875 56.7588 242.729 55.754 241.549 56.1111C239.493 56.7364 237.28 57.0311 235.026 56.8391C234.19 56.7676 233.409 57.2767 233.156 58.1076C229.822 69.0576 221.888 79.2443 211.619 79.8335C205.063 80.2087 195.27 76.4532 196.249 60.7603C196.331 59.4827 195.185 58.4779 194.005 58.8355C191.949 59.4608 189.736 59.7599 187.482 59.5632C186.646 59.492 185.865 60.0011 185.612 60.8315C182.277 71.782 174.344 81.9684 164.075 82.5579C159.411 82.8259 153.103 80.9991 150.207 74.2735C149.649 72.9743 147.976 72.7776 147.147 73.9076C143.093 79.4408 138.153 83.8084 132.996 84.1031C127.709 84.4067 124.817 82.2855 123.56 78.5026C123.114 77.1676 121.444 76.8503 120.543 77.9087C116.935 82.1515 112.824 85.2596 108.666 85.4964C102.255 85.867 98.5646 81.1152 98.2602 75.3587C97.9084 68.6423 100.813 60.7779 104.057 52.1947C104.508 51.0023 103.692 49.7115 102.461 49.6579C100.59 49.5779 98.4534 49.3811 96.445 49.0059C95.5396 48.832 94.6602 49.3947 94.4026 50.3147C90.5665 64.0111 84.6921 77.4355 79.7358 85.3711C79.1823 86.2599 78.0369 86.4967 77.2043 85.8847L73.4197 83.0984C72.6431 82.522 72.4328 81.4147 72.9519 80.5796C80.1138 69.1067 86.4729 51.1452 88.6657 37.8595C88.8029 37.011 89.4936 36.3813 90.3218 36.3322L95.3551 36.0418C96.5094 35.9749 97.4192 37.0512 97.2089 38.2345L97.1873 38.3596C96.9985 39.4135 97.7024 40.4049 98.7194 40.5435C103.233 41.1644 109.979 41.24 114.557 41.0615C115.844 41.0123 116.754 42.3432 116.286 43.5891C112.613 53.3603 107.692 66.9008 107.975 72.2596C108.104 74.6799 109.172 76.002 111.051 75.8947C114.648 75.6896 120.179 68.4591 124.371 60.4076C124.448 60.2644 124.504 60.1084 124.538 59.9476C125.951 53.6428 128.047 46.6132 130.165 39.5106L130.296 39.0696C130.515 38.3284 131.155 37.8103 131.901 37.7657L137.93 37.4218C139.175 37.3503 140.106 38.6008 139.728 39.8378C139.418 40.8579 139.109 41.8711 138.803 42.8752C133.497 60.2632 129.042 74.8659 135.042 74.524C138.964 74.3003 144.521 67.6464 149.301 58.1744C149.378 58.0179 149.434 57.8527 149.469 57.6788C149.709 56.4415 150.001 55.1467 150.357 53.7935C153.144 42.6615 156.305 31.634 159.469 20.5932C160.446 17.1857 161.423 13.777 162.389 10.3635C162.604 9.60875 163.247 9.07731 164.002 9.03264L170.19 8.67984C171.448 8.6084 172.378 9.87223 171.983 11.1182C169.512 18.8708 166.929 27.1281 164.474 35.0773C163.959 36.752 165.753 38.1452 167.169 37.1806C169.611 35.5105 172.434 34.4029 175.168 34.2466C182.133 33.8491 186.873 39.5788 187.327 48.2111C187.353 48.6667 187.38 49.1579 187.392 49.6579C187.417 50.614 188.134 51.3864 189.049 51.4667C192.327 51.7571 195.678 50.7835 198.266 48.4747C198.533 48.2379 198.712 47.9164 198.802 47.5679C201.368 37.6044 204.2 27.7149 207.034 17.813C208.005 14.423 208.977 11.0314 209.938 7.63484C210.151 6.88011 210.795 6.34867 211.551 6.30403L217.738 5.95123C218.995 5.87979 219.927 7.14359 219.532 8.38955C217.06 16.1422 214.477 24.3995 212.022 32.3486C211.507 34.0234 213.302 35.4166 214.717 34.452C217.16 32.7818 219.983 31.6744 222.716 31.5179C229.68 31.1207 234.421 36.8501 234.877 45.4828C234.902 45.9379 234.927 46.4296 234.941 46.9296C234.961 47.8852 235.683 48.6579 236.597 48.7384C239.875 49.0284 243.226 48.0547 245.814 45.7459C246.08 45.5096 246.26 45.1879 246.351 44.8396C248.917 34.8759 251.748 24.9866 254.583 15.0849C255.554 11.6946 256.524 8.30291 257.485 4.90623C257.7 4.15151 258.344 3.62008 259.099 3.57542L265.287 3.22262C266.544 3.15117 267.475 4.415 267.08 5.66096C264.609 13.4136 262.026 21.6708 259.571 29.62C259.056 31.2947 260.849 32.6881 262.266 31.7235C264.707 30.0532 267.531 28.9457 270.265 28.7895C277.229 28.392 281.97 34.1215 282.426 42.754C282.451 43.214 282.476 43.7008 282.488 44.2008C282.515 45.152 283.227 45.9291 284.141 46.0096C287.312 46.2908 290.556 45.3888 293.105 43.2408C293.388 43.004 293.585 42.6691 293.68 42.3028C296.602 31.0401 300.893 16.2851 305.031 2.16423C305.249 1.41843 305.892 0.9004 306.639 0.855742L312.771 0.502944C314.015 0.43149 314.946 1.67299 314.573 2.91001C308.878 21.8183 304.236 38.3596 301.675 48.1176C298.271 61.354 298.139 65.1723 302.009 64.9491C305.258 64.7615 309.634 60.1528 313.761 53.1859C313.926 52.9135 314.01 52.6011 314.024 52.284C314.565 38.3373 323.115 25.65 335.826 24.922C344.339 24.4352 349.004 30.8661 349.337 37.194C349.973 49.274 338.032 56.9955 326.459 56.2808C325.112 56.1959 324.132 57.6432 324.726 58.9023C326.343 62.3588 329.746 64.2884 335.556 63.9532C341.083 63.6408 346.88 58.8711 350.531 54.6152ZM159.231 58.0047C156.484 69.0132 159.818 73.3223 164.131 73.0767C171.211 72.6703 178.06 59.6971 177.533 49.6847C177.3 45.3128 174.743 43.0352 171.756 43.2052C166.783 43.4908 161.428 49.2203 159.231 58.0047ZM206.778 55.2808C204.032 66.2888 207.366 70.5984 211.68 70.3527H211.675C218.755 69.9464 225.607 56.9732 225.08 46.9608C224.853 42.5888 222.29 40.3111 219.304 40.4808C214.331 40.7667 208.977 46.4964 206.778 55.2808ZM254.327 52.5564C251.582 63.5647 254.916 67.8743 259.227 67.6288H259.224C266.299 67.2223 273.156 54.2491 272.629 44.2367C272.4 39.8645 269.839 37.5871 266.853 37.7567C261.88 38.0425 256.524 43.7723 254.327 52.5564ZM340.297 38.1676C340.254 35.2827 338.482 33.1927 335.607 33.3579H335.604C329.956 33.6839 325.536 39.7976 324.129 47.2152C323.905 48.3944 324.768 49.4928 325.922 49.4659C333.217 49.2832 340.529 44.4688 340.297 38.1676ZM75.4979 43.5232C74.7599 21.1715 60.2264 6.42099 38.7499 7.18911C29.5288 7.60891 18.9771 11.1056 11.0389 17.3578C10.2922 17.9473 10.0991 19.0279 10.6054 19.8496L13.9739 25.3337C14.5488 26.2715 15.7718 26.4635 16.6085 25.7669C22.6503 20.7473 30.8976 17.4561 38.8315 17.1077C53.5496 16.4959 64.3628 25.9188 64.9938 44.1215C65.7833 65.3164 51.5372 89.5611 28.6447 90.874C27.8466 90.9187 27.0142 90.9367 26.1817 90.9367C25.0145 90.9367 24.1522 89.7979 24.4439 88.6187C28.8593 70.7955 34.0128 51.682 39.2693 33.8947C39.634 32.6576 38.7071 31.4251 37.4671 31.4966L30.773 31.8807C30.0222 31.9252 29.3784 32.4478 29.1596 33.1979C24.1091 50.6771 19.0544 69.6347 14.506 87.422C14.2442 88.4491 13.2015 89.0387 12.2317 88.7079C9.85884 87.8999 7.69189 86.9799 5.84676 85.9035C4.96281 85.3855 3.84288 85.752 3.38803 86.6984L0.513066 92.7096C0.0882598 93.5984 0.401501 94.6879 1.23824 95.1655C7.75623 98.8635 17.6513 100.976 27.5978 100.409C60.3296 98.5326 76.3648 68.2991 75.4979 43.532V43.5232ZM139.823 16.0607C135.841 16.2884 132.309 20.7632 132.559 25.4791C132.721 28.5873 134.717 30.6639 137.815 30.4898C141.797 30.262 145.427 25.5505 145.191 21.0624C145.028 17.9542 142.698 15.8955 139.823 16.0607Z" fill="black"/>
</svg>
