<svg width="203" height="60" viewBox="0 0 203 60" fill="none" xmlns="http://www.w3.org/2000/svg">
<path d="M172.575 8.95705C173.347 8.95705 174.068 9.12256 174.675 9.50874C176.058 10.2259 176.941 11.7194 176.941 13.3784V25.819H188.995C191.427 25.819 193.362 27.7538 193.362 30.1852C193.362 32.6166 191.427 34.5514 188.995 34.5514H176.941V46.3851C176.941 48.8165 175.006 50.7513 172.575 50.7513C172.078 50.7513 139.013 50.7513 139.013 50.7513C136.581 50.7513 134.646 48.8165 134.646 46.3851V29.9645C134.757 27.6435 136.692 25.7638 139.013 25.7638H168.205V17.6895H134.532L118.553 47.3821C118.277 48.7101 117.445 49.8686 116.177 50.4794C115.57 50.7553 114.904 50.9208 114.297 50.9208C112.803 50.9208 111.31 50.1484 110.538 48.7653C110.372 48.5446 110.262 48.2688 110.151 47.9929L97.5453 23.2221L84.7737 47.4412C84.2221 48.714 83.3906 49.8726 82.1178 50.5385C81.5109 50.8144 80.8449 50.9799 80.2381 50.9799C78.7446 50.9799 77.2511 50.2075 76.4787 48.8244C76.3132 48.6037 76.2029 48.3279 76.0925 48.052L60.665 17.8077H34.8972V25.882H55.7431C58.1745 25.882 60.1094 27.8169 60.1094 30.2483C60.1094 32.6796 58.1745 34.6145 55.7431 34.6145H34.8972V46.6688C34.8972 49.1002 32.9624 51.0351 30.531 51.0351C28.0996 51.0351 26.1648 49.1002 26.1648 46.6688V34.6145H13.8897C11.4584 34.6145 9.52352 32.6796 9.52352 30.2483C9.52352 27.8169 11.4584 25.882 13.8897 25.882H25.9441V13.4415C25.9441 11.7825 26.8859 10.3442 28.21 9.57179C28.8168 9.24078 29.538 9.0201 30.3103 9.0201H62.986C63.7032 9.0201 64.3692 9.18561 64.976 9.51662C65.9178 9.9028 66.6902 10.6239 67.1316 11.617L80.0686 36.9946L93.0057 12.7755C93.6677 11.4475 94.0027 10.2338 95.4371 9.56785C96.0439 9.29201 96.7099 9.1265 97.3168 9.1265C98.4241 9.1265 99.4723 9.51267 100.249 10.289C101.021 10.8958 101.411 11.3411 101.963 12.3893L114.183 36.9946L127.896 11.5618C128.227 10.9549 128.724 10.4545 129.334 10.0683C130.107 9.46145 131.049 9.07133 132.156 9.07133H172.575M143.217 41.9677H168.209V34.5593H143.217V41.9677ZM172.575 0H132.156C129.224 0 126.351 0.99698 124.026 2.76632C122.423 3.87364 121.095 5.3632 120.157 7.0222L120.101 7.13254L120.046 7.24288L114.462 17.6383C114.462 17.6383 107.992 4.92185 106.057 3.37318C103.626 1.27283 100.528 0.110343 97.3207 0.110343C95.3307 0.110343 93.3407 0.551691 91.5162 1.43833C88.0326 3.09734 86.0978 6.19467 84.494 9.78852L80.2933 17.6383L75.1507 7.57389C73.8227 4.86274 71.5569 2.65205 68.7906 1.38316C66.966 0.496523 64.976 0.0551746 62.986 0.0551746H30.3103C28.0996 0.0551746 25.8889 0.606859 23.9502 1.65901C19.6391 3.98004 16.9831 8.5157 16.9831 13.3824V16.8659H13.8858C6.53259 16.8659 0.558594 22.8359 0.558594 30.1931C0.558594 37.5502 6.52865 43.5203 13.8858 43.5203H16.9831V46.6176C16.9831 53.9708 22.9532 59.9448 30.3103 59.9448C37.6675 59.9448 43.6375 53.9748 43.6375 46.6176V43.5203H55.4712C58.0129 43.5203 60.4482 42.8031 62.4934 41.5303L67.7463 51.8153C68.0221 52.4222 68.298 52.9778 68.6329 53.5295C71.0643 57.5095 75.3793 59.9448 80.0213 59.9448C82.0114 59.9448 84.0014 59.5035 85.8259 58.6168C89.0887 57.0682 91.9063 54.4161 93.3446 51.0429L97.1591 42.5824L101.915 51.8705C102.191 52.4773 102.467 53.033 102.798 53.5847C105.23 57.5647 109.545 60 114.187 60C116.177 60 118.167 59.5586 119.991 58.672C123.033 57.1785 125.409 54.5816 126.627 51.4843C128.617 56.351 133.429 59.7793 139.013 59.7793H172.575C179.928 59.7793 185.902 54.0299 185.902 46.6767V43.5794H188.999C196.353 43.5794 202.327 37.6094 202.327 30.2522C202.327 22.899 196.357 16.925 188.999 16.925H185.902V13.4415C185.902 8.51964 183.25 4.04308 178.935 1.71811C177 0.551688 174.786 0 172.575 0Z" fill="white"/>
</svg>
