<svg width="496" height="257" viewBox="0 0 496 257" fill="none" xmlns="http://www.w3.org/2000/svg">
<path d="M258.79 7.42518L289.186 69.5564L357.162 79.5233C359.392 79.8658 361.482 80.8222 363.199 82.2853C364.915 83.7483 366.191 85.6604 366.883 87.8074C367.575 89.9544 367.655 92.2515 367.115 94.4417C366.576 96.6318 365.437 98.6285 363.827 100.208L314.641 148.575L326.246 216.842C326.643 219.06 326.409 221.344 325.573 223.436C324.737 225.529 323.33 227.344 321.514 228.677C319.697 230.01 317.543 230.807 315.297 230.978C313.05 231.148 310.801 230.685 308.804 229.642L248.004 197.403L187.204 229.65C185.207 230.694 182.957 231.157 180.711 230.986C178.464 230.816 176.31 230.019 174.494 228.686C172.677 227.353 171.271 225.537 170.434 223.445C169.598 221.353 169.365 219.068 169.762 216.85L181.367 148.584L132.181 100.217C130.571 98.637 129.432 96.6403 128.892 94.4502C128.352 92.26 128.433 89.9629 129.125 87.8159C129.816 85.6689 131.092 83.7569 132.809 82.2938C134.526 80.8307 136.616 79.8744 138.845 79.5319L206.822 69.5649L237.218 7.43371C238.187 5.39498 239.715 3.6728 241.624 2.46672C243.532 1.26064 245.743 0.620035 248.001 0.619142C250.259 0.618248 252.47 1.2571 254.38 2.46167C256.289 3.66624 257.818 5.38722 258.79 7.42518Z" fill="#FDD213"/>
<path d="M74.9607 124.136L92.3345 160.957L131.178 166.862C132.473 167.111 133.675 167.706 134.658 168.585C135.64 169.464 136.366 170.593 136.756 171.852C137.147 173.111 137.189 174.453 136.877 175.734C136.564 177.014 135.91 178.186 134.984 179.124L106.875 207.779L113.514 248.253C113.779 249.536 113.676 250.867 113.216 252.094C112.755 253.32 111.957 254.392 110.914 255.184C109.87 255.975 108.624 256.456 107.319 256.569C106.013 256.682 104.703 256.423 103.539 255.822L68.7996 236.716L34.0604 255.813C32.8962 256.414 31.5858 256.673 30.2807 256.56C28.9755 256.447 27.7291 255.967 26.6855 255.175C25.6419 254.383 24.8438 253.312 24.3836 252.085C23.9234 250.859 23.8198 249.527 24.0849 248.244L30.7239 207.771L2.61505 179.124C1.68885 178.186 1.03477 177.014 0.722628 175.734C0.410488 174.453 0.452009 173.111 0.842758 171.852C1.23351 170.593 1.95882 169.464 2.94125 168.585C3.92369 167.706 5.12638 167.111 6.42092 166.862L45.2647 160.957L62.6385 124.136C63.1679 122.943 64.0318 121.931 65.1254 121.22C66.2189 120.509 67.4953 120.13 68.7996 120.13C70.1039 120.13 71.3802 120.509 72.4738 121.22C73.5674 121.931 74.4312 122.943 74.9607 124.136Z" fill="#FDD213"/>
<path d="M433.359 124.135L450.733 160.957L489.577 166.862C490.871 167.111 492.074 167.706 493.056 168.585C494.039 169.464 494.764 170.593 495.155 171.852C495.546 173.111 495.587 174.453 495.275 175.733C494.963 177.014 494.309 178.186 493.383 179.124L465.274 207.779L471.913 248.253C472.178 249.536 472.074 250.867 471.614 252.094C471.154 253.32 470.356 254.392 469.312 255.183C468.269 255.975 467.022 256.455 465.717 256.568C464.412 256.681 463.101 256.423 461.937 255.822L427.198 236.716L392.459 255.813C391.295 256.414 389.984 256.673 388.679 256.56C387.374 256.447 386.127 255.967 385.084 255.175C384.04 254.383 383.242 253.312 382.782 252.085C382.322 250.859 382.218 249.527 382.483 248.244L389.122 207.771L361.013 179.116C360.087 178.178 359.433 177.006 359.121 175.725C358.809 174.444 358.85 173.103 359.241 171.844C359.632 170.585 360.357 169.456 361.34 168.577C362.322 167.698 363.525 167.102 364.819 166.853L403.663 160.948L421.037 124.127C421.567 122.935 422.432 121.923 423.526 121.213C424.62 120.503 425.896 120.125 427.201 120.126C428.505 120.127 429.781 120.506 430.874 121.218C431.967 121.929 432.831 122.943 433.359 124.135Z" fill="#FDD213"/>
</svg>
