<svg width="105" height="60" viewBox="0 0 105 60" fill="none" xmlns="http://www.w3.org/2000/svg">
<g clip-path="url(#clip0_1440_664)">
<path d="M2.5625 0H32.2655V57.0297H2.5625V0Z" fill="white"/>
<path d="M18.0018 42.3684C18.0018 42.3684 25.6652 41.3407 25.6652 38.4595C25.6652 35.8813 17.2949 35.2278 17.2949 35.2278C17.2949 35.2278 25.5523 33.8615 25.5523 31.4793C25.5523 29.5902 16.7602 28.1882 16.7602 28.1882C16.7602 28.1882 25.3444 27.0001 25.3444 24.4159C25.3444 22.2179 17.384 21.0476 17.384 21.0476C17.384 21.0476 25.1127 20.2397 25.1127 17.4357C25.1127 15.2793 16.9681 13.9011 16.9681 13.9011C16.9681 13.9011 25.0414 12.909 25.0414 10.4437C25.0414 7.23574 14.3721 6.49316 14.3721 6.49316L12.7087 8.55455C12.7087 8.55455 20.0097 9.2199 20.0097 10.3664C20.0097 11.513 2.18793 12.6654 2.06318 12.6773C1.78397 12.8318 1.36813 14.6971 1.85526 15.0536C2.19981 15.3031 19.7721 15.9446 19.7721 17.4239C19.7721 18.8912 3.64932 19.9011 1.85526 20.008C0.999812 20.4892 0.738426 21.7189 1.64734 22.3843C2.56219 23.0555 19.9147 23.1268 19.9147 24.5585C19.9147 25.9961 2.681 26.9823 1.98595 27.0239C1.12456 27.505 0.869119 28.7347 1.77803 29.4001C2.12258 29.6615 19.7721 30.2318 19.7721 31.705C19.7721 33.1724 3.04338 34.3486 2.14041 34.4021C1.28496 34.8833 1.02357 36.113 1.93249 36.7783C2.27704 37.0338 19.7721 37.0575 19.7721 38.5308C19.7721 39.9981 3.57209 41.2991 2.23546 41.3823C1.38001 41.8575 1.11862 43.6041 2.02754 44.2753C2.16417 44.3704 18.578 44.2041 21.085 45.6773H25.8968C25.8968 43.4971 17.9959 42.3625 17.9959 42.3625L18.0018 42.3684Z" fill="black"/>
<path d="M26.1181 46.1171V45.921C26.1181 43.8181 20.3676 42.1963 13.2389 42.1963C6.11019 42.1963 0.335938 43.9012 0.335938 45.9983V56.6141H0.413165C1.10821 58.5151 6.59138 60.0003 13.2448 60.0003C19.8983 60.0003 25.3755 58.5151 26.0765 56.6141L26.1181 56.5309V46.1171Z" fill="#191919"/>
<path d="M42.6495 46.7999H43.3862L48.1743 57.1543H47.3426L46.0357 54.2791H39.9584L38.6515 57.1543H37.8555L42.6436 46.7999H42.6495ZM45.7149 53.584L43.0119 47.6316L40.2911 53.584H45.7149ZM47.8713 46.8712H48.7208L51.9525 56.0197L54.9644 46.8415H55.5584L58.5644 56.0256L61.7961 46.8712H62.5921L58.8614 57.2316H58.2436L55.2317 48.2969L52.2198 57.2316H51.5961L47.8713 46.8712ZM67.0713 46.7999H67.8079L72.5961 57.1543H71.7644L70.4575 54.2791H64.3862L63.0792 57.1543H62.2832L67.0713 46.7999ZM70.1307 53.584L67.4277 47.6316L64.707 53.584H70.1307ZM74.1109 46.8712H78.4357C79.6951 46.8712 80.7109 47.2692 81.3287 47.8811C81.83 48.3913 82.1097 49.0787 82.107 49.7939V49.8236C82.107 51.5464 80.8297 52.5266 79.0951 52.7642L82.4872 57.1603H81.5188L78.2456 52.8949H74.8773V57.1543H74.1169V46.8712H74.1109ZM78.3466 52.2058C80.0693 52.2058 81.3406 51.3385 81.3406 49.8533V49.8236C81.3406 48.4395 80.2535 47.5781 78.3881 47.5781H74.8832V52.2058H78.3466ZM84.3703 46.8712H87.798C91.0297 46.8712 93.2634 49.087 93.2634 51.9801V52.0098C93.2634 54.9088 91.0297 57.1543 87.798 57.1543H84.3703V46.8712ZM87.798 56.4533C90.6614 56.4533 92.4674 54.493 92.4674 52.0454V52.0157C92.4674 49.5741 90.6614 47.5781 87.798 47.5781H85.1367V56.4474H87.798V56.4533ZM94.6891 55.6573L95.1881 55.0811C96.3169 56.1266 97.3624 56.6137 98.8713 56.6137C100.416 56.6137 101.479 55.7464 101.479 54.5702V54.5405C101.479 53.4533 100.903 52.8177 98.5683 52.3484C96.0971 51.8494 95.099 51.0118 95.099 49.4553V49.4256C95.099 47.8989 96.4951 46.7227 98.4079 46.7227C99.905 46.7227 100.891 47.1385 101.931 47.9702L101.45 48.5761C100.613 47.8084 99.5135 47.3916 98.3782 47.4118C96.8634 47.4118 95.8654 48.2791 95.8654 49.3543V49.384C95.8654 50.4712 96.4238 51.1306 98.8654 51.6296C101.242 52.1167 102.24 52.9662 102.24 54.4692V54.4989C102.24 56.1623 100.814 57.3029 98.8357 57.3029C97.1842 57.3029 95.9248 56.7623 94.6891 55.6573Z" fill="white"/>
<path d="M40.4944 15.766H36.9062V15.0591H44.8429V15.766H41.2548V25.3482H40.4944V15.766ZM46.5003 15.0591H47.2666V19.8234H53.8488V15.0591H54.6152V25.3482H53.8488V20.5244H47.2666V25.3482H46.5003V15.0591ZM57.3063 15.0591H64.6191V15.766H58.0666V19.8056H63.9597V20.5125H58.0666V24.6413H64.6963V25.3482H57.3063V15.0591Z" fill="white"/>
<path d="M47.8778 30.4869C48.2342 31.7641 48.5906 33.0413 48.9708 34.3186C49.6243 36.6057 49.7431 36.974 50.1114 39.273C50.4679 36.9206 50.551 36.5166 51.0857 34.1047L51.858 30.4869H54.7985L51.7926 42.3562H48.7391C48.3649 41.0493 48.0144 39.7364 47.6283 38.4354C46.9926 36.2552 46.957 36.178 46.6005 34.5146C46.3399 35.8146 46.0027 37.098 45.5906 38.3582L44.45 42.3562H41.3966L38.3906 30.4928H41.3431C42.6203 36.1245 42.757 36.7423 43.1075 39.3146C43.5471 36.9621 43.6659 36.5107 44.2837 34.1582L45.258 30.4928H47.8778V30.4869ZM67.0124 39.1423C66.6144 39.7364 66.2223 40.3008 65.6342 40.8473C64.4549 41.9118 62.9157 42.4893 61.3273 42.4631C57.9411 42.4631 55.5589 40.3008 55.5589 36.5641C55.5589 33.8077 56.9134 30.2671 61.4164 30.2671C62.0936 30.2671 64.0599 30.3324 65.5213 31.9067C67.0065 33.5047 67.0956 35.7324 67.1431 37.0215H58.9867C58.9688 38.4473 59.7768 39.8611 61.5886 39.8611C63.4302 39.8611 64.0599 38.6611 64.4758 37.8532L67.0124 39.1423ZM63.6679 34.9245C63.639 34.3307 63.4157 33.763 63.0322 33.3087C62.574 32.8804 61.9647 32.6511 61.3378 32.6712C60.711 32.6912 60.1176 32.9589 59.6877 33.4156C59.2302 33.9206 59.1174 34.4433 59.0104 34.9245H63.6679ZM69.258 30.4869H73.8441C75.0916 30.4869 76.2144 30.5404 76.9332 30.772C77.5331 30.9374 78.0607 31.2984 78.432 31.7978C78.8033 32.2972 78.9971 32.9063 78.9827 33.5285C78.9827 34.1701 78.8164 34.5562 78.7629 34.6691C78.2283 35.881 77.0877 36.1186 76.4461 36.2493C77.1708 36.3681 78.1273 36.5166 78.7807 37.2592C79.2025 37.7107 79.4342 38.3641 79.4342 39.0413C79.425 39.6592 79.2343 40.2607 78.8857 40.771C78.5371 41.2812 78.0461 41.6775 77.4738 41.9107C76.5827 42.2968 75.6263 42.3503 74.2659 42.3503H69.258V30.4869ZM72.0797 32.7027V35.174H74.3134C74.9847 35.1562 76.0778 35.1265 76.0778 33.8968C76.0778 32.7562 75.0857 32.7087 74.5154 32.7087H72.0797V32.7027ZM72.0797 37.3245V40.1998H74.1471C75.1391 40.1819 76.4282 40.1463 76.4282 38.7859C76.4282 37.3602 75.252 37.3423 74.6461 37.3245H72.0797ZM81.858 30.4869H86.4441C87.6857 30.4869 88.8084 30.5404 89.5332 30.772C90.1331 30.9374 90.6607 31.2984 91.032 31.7978C91.4033 32.2972 91.5971 32.9063 91.5827 33.5285C91.5827 34.1701 91.4164 34.5562 91.3629 34.6691C90.8282 35.881 89.6877 36.1186 89.0461 36.2493C89.7708 36.3681 90.7273 36.5166 91.3807 37.2592C91.7966 37.7107 92.0342 38.3641 92.0342 39.0413C92.0342 39.9621 91.5471 41.2572 90.0738 41.9107C89.1827 42.2968 88.2263 42.3503 86.8659 42.3503H81.858V30.4869ZM84.6797 32.7027V35.174H86.9134C87.5847 35.1562 88.6778 35.1265 88.6778 33.8968C88.6778 32.7562 87.6857 32.7087 87.1154 32.7087H84.6797V32.7027ZM84.6797 37.3245V40.1998H86.7471C87.7332 40.1819 89.0283 40.1463 89.0283 38.7859C89.0283 37.3602 87.852 37.3423 87.2461 37.3245H84.6797ZM91.9688 30.4869H95.3787L97.9332 34.5562C98.0817 34.2176 98.1114 34.1522 98.4203 33.6651L100.452 30.4869H103.826L99.3411 36.7364V42.3503H96.4184V36.8255L91.9629 30.4869H91.9688Z" fill="white"/>
</g>
<defs>
<clipPath id="clip0_1440_664">
<rect width="103.96" height="60" fill="white" transform="translate(0.335938)"/>
</clipPath>
</defs>
</svg>
