<svg width="47" height="111" viewBox="0 0 47 111" fill="none" xmlns="http://www.w3.org/2000/svg">
<g clip-path="url(#clip0_512_600)">
<path d="M12.7165 99.5156C7.2762 94.9074 13.2674 82.1138 13.2674 82.1138C16.9218 92.4363 14.1534 97.8107 13.184 99.2557C13.2815 99.2019 13.3741 99.149 13.4725 99.0952C15.6367 97.9106 17.9202 96.1711 20.162 94.0006C15.1019 90.2667 17.8713 77.5051 17.8713 77.5051C23.1967 86.3447 22.0571 91.1561 21.064 93.103C22.7113 91.4121 24.3241 89.4962 25.8356 87.3839C20.0524 85.2274 21.0392 72.5181 21.0392 72.5181C27.2778 79.2396 27.0081 84.3299 26.4951 86.4339C27.881 84.407 29.1699 82.2209 30.309 79.9098C23.4963 77.5167 22.6792 65.8582 22.6792 65.8582C29.8973 71.283 31.098 75.8117 31.1043 78.2164C32.0479 76.1133 32.8626 73.921 33.5114 71.6613C26.1275 69.6731 23.8925 60.8853 23.8925 60.8853C32.1047 64.3748 33.7447 68.0481 33.9328 70.0989C34.4735 67.9298 34.8547 65.7064 35.0501 63.4496C27.4257 63.2736 23.2578 54.2841 23.2578 54.2841C32.1299 56.5312 34.5249 59.9494 35.1495 61.9173C35.2426 59.9659 35.1956 57.9947 34.9788 56.0143C28.3538 57.502 21.4645 48.1639 21.4645 48.1639C30.5364 48.7196 33.719 52.5195 34.7887 54.595C34.7562 54.3787 34.7334 54.1629 34.6971 53.9466C34.2815 51.4842 33.8063 49.1221 33.2699 46.8522C27.495 50.058 18.5327 42.6833 18.5327 42.6833C27.3835 41.0569 31.2779 43.4718 32.85 45.1458C32.27 42.8768 31.6246 40.7029 30.9098 38.6187C24.9477 42.6925 15.9403 35.8324 15.9403 35.8324C24.9608 33.8864 29.0841 36.3294 30.565 37.645C29.7232 35.2941 28.7917 33.0567 27.7627 30.9264C22.2215 35.6777 12.2467 28.8456 12.2467 28.8456C21.7152 26.71 26.0019 29.09 27.4135 30.2199C26.3011 27.9888 25.0796 25.875 23.7437 23.8669C20.0743 28.3258 8.778 23.1589 8.778 23.1589C17.011 20.6005 21.7424 22.4054 23.332 23.2487C22.1861 21.5742 20.9573 19.9754 19.6441 18.4426C16.6095 21.7333 5.3554 17.337 5.3554 17.337C12.4028 15.5137 17.0726 16.8714 18.9584 17.659C17.4208 15.9307 15.7677 14.2897 13.9982 12.7254C11.5959 16.0495 1.268 11.7153 1.268 11.7153C8.4633 10.0006 12.798 12.0033 13.8032 12.5527C12.9731 11.8249 12.1181 11.1125 11.2351 10.4167C9.5869 10.0442 4.7406 8.43483 0.394699 1.90924C0.394699 1.90924 8.793 4.27711 11.4058 9.52444C11.4553 9.54044 11.5033 9.56469 11.5464 9.60203C12.4746 10.3279 13.3707 11.0728 14.2421 11.8331C13.2718 10.647 10.7521 6.97569 10.2851 0.367188C10.2851 0.367188 16.7957 9.27666 14.6654 12.207C16.2463 13.6123 17.734 15.0777 19.1306 16.612C18.0032 14.4405 16.3001 9.89783 16.9247 3.03328C16.9247 3.03328 23.218 14.4575 20.2483 17.8743C21.528 19.3659 22.7268 20.9215 23.8494 22.5455C22.9954 20.488 21.5087 15.0763 24.6155 6.7313C24.6155 6.7313 29.5491 20.1718 24.4269 23.4009C25.7304 25.3615 26.9276 27.4199 28.0202 29.5895C27.446 27.3826 26.6614 21.662 30.7314 13.6967C30.7314 13.6967 34.3591 27.0669 28.476 30.5128C29.5205 32.6731 30.4661 34.9416 31.3196 37.3254C30.8948 34.8067 30.3851 28.1124 35.6344 23.0571C35.6344 23.0571 39.2408 33.7036 31.6542 38.2672C32.4179 40.4895 33.1017 42.8147 33.7141 45.2452C33.5808 42.8152 34.1307 37.3599 40.2877 31.1281C40.2877 31.1281 42.5213 42.4603 34.0293 46.5225C34.5865 48.8661 35.0782 51.3082 35.5069 53.855C35.599 54.4049 35.6732 54.9548 35.7396 55.5037C35.6019 53.8928 35.5782 47.6717 42.5368 42.4598C42.5368 42.4598 43.7714 53.8356 35.7881 55.9037C36.0379 58.1606 36.0713 60.4072 35.9292 62.6257C36.6329 60.2797 39.169 53.9655 46.4579 52.0961C46.4579 52.0961 44.6894 64.0296 35.8657 63.5199C35.6456 66.073 35.1868 68.5826 34.537 71.0231C35.3178 69.112 38.0852 64.4626 47 62.2659C47 62.2659 40.9186 74.7352 34.2999 71.8872C33.5497 74.5034 32.5818 77.0308 31.4515 79.436C32.5362 77.6855 36.0122 73.7765 45.5433 73.454C45.5433 73.454 38.7466 84.1218 31.0437 80.288C29.843 82.7281 28.4784 85.0301 27.0106 87.1603C28.4358 85.7899 32.6846 82.893 42.2226 84.3332C42.2226 84.3332 32.463 93.297 26.5024 87.8921C24.7974 90.2808 22.9663 92.4285 21.0999 94.2858C22.6686 93.0507 27.6138 90.1639 37.1013 93.0196C37.1013 93.0196 25.0612 100.924 20.5572 94.8148C18.4978 96.7928 16.4092 98.4032 14.407 99.5714C16.7331 98.5924 21.8306 97.5871 30.1606 101.618C30.1606 101.618 17.1531 107.549 12.9061 100.418C2.8809 106.073 1.2249 109.977 1.2127 110.025C1.1177 110.229 0.8811 110.32 0.667198 110.234C0.456299 110.133 0.354401 109.875 0.4398 109.65C0.510601 109.482 2.17 105.424 12.7165 99.5156Z" fill="url(#paint0_linear_512_600)"/>
</g>
<defs>
<linearGradient id="paint0_linear_512_600" x1="23.6973" y1="0.367187" x2="23.6973" y2="110.267" gradientUnits="userSpaceOnUse">
<stop stop-color="#543DE7"/>
<stop offset="1" stop-color="#7F39F8"/>
</linearGradient>
<clipPath id="clip0_512_600">
<rect width="47" height="111" fill="white" transform="matrix(-1 0 0 1 47 0)"/>
</clipPath>
</defs>
</svg>
