<svg width="47" height="111" viewBox="0 0 47 111" fill="none" xmlns="http://www.w3.org/2000/svg">
<g clip-path="url(#clip0_512_598)">
<path d="M34.2835 99.5156C39.7238 94.9074 33.7326 82.1138 33.7326 82.1138C30.0782 92.4363 32.8466 97.8107 33.816 99.2557C33.7185 99.2019 33.6259 99.149 33.5275 99.0952C31.3633 97.9106 29.0798 96.1711 26.838 94.0006C31.8981 90.2667 29.1287 77.5051 29.1287 77.5051C23.8033 86.3447 24.9429 91.1561 25.936 93.103C24.2887 91.4121 22.6759 89.4962 21.1644 87.3839C26.9476 85.2274 25.9608 72.5181 25.9608 72.5181C19.7222 79.2396 19.9919 84.3299 20.5049 86.4339C19.119 84.407 17.8301 82.2209 16.691 79.9098C23.5037 77.5167 24.3208 65.8582 24.3208 65.8582C17.1027 71.283 15.902 75.8117 15.8957 78.2164C14.9521 76.1133 14.1374 73.921 13.4886 71.6613C20.8725 69.6731 23.1075 60.8853 23.1075 60.8853C14.8953 64.3748 13.2553 68.0481 13.0672 70.0989C12.5265 67.9298 12.1453 65.7064 11.9499 63.4496C19.5743 63.2736 23.7422 54.2841 23.7422 54.2841C14.8701 56.5312 12.4751 59.9494 11.8505 61.9173C11.7574 59.9659 11.8044 57.9947 12.0212 56.0143C18.6462 57.502 25.5355 48.1639 25.5355 48.1639C16.4636 48.7196 13.281 52.5195 12.2113 54.595C12.2438 54.3787 12.2666 54.1629 12.3029 53.9466C12.7185 51.4842 13.1937 49.1221 13.7301 46.8522C19.505 50.058 28.4673 42.6833 28.4673 42.6833C19.6165 41.0569 15.7221 43.4718 14.15 45.1458C14.73 42.8768 15.3754 40.7029 16.0902 38.6187C22.0523 42.6925 31.0597 35.8324 31.0597 35.8324C22.0392 33.8864 17.9159 36.3294 16.435 37.645C17.2768 35.2941 18.2083 33.0567 19.2373 30.9264C24.7785 35.6777 34.7533 28.8456 34.7533 28.8456C25.2848 26.71 20.9981 29.09 19.5865 30.2199C20.6989 27.9888 21.9204 25.875 23.2563 23.8669C26.9257 28.3258 38.222 23.1589 38.222 23.1589C29.989 20.6005 25.2576 22.4054 23.668 23.2487C24.8139 21.5742 26.0427 19.9754 27.3559 18.4426C30.3905 21.7333 41.6446 17.337 41.6446 17.337C34.5972 15.5137 29.9274 16.8714 28.0416 17.659C29.5792 15.9307 31.2323 14.2897 33.0018 12.7254C35.4041 16.0495 45.732 11.7153 45.732 11.7153C38.5367 10.0006 34.202 12.0033 33.1968 12.5527C34.0269 11.8249 34.8819 11.1125 35.7649 10.4167C37.4131 10.0442 42.2594 8.43483 46.6053 1.90924C46.6053 1.90924 38.207 4.27711 35.5942 9.52444C35.5447 9.54044 35.4967 9.56469 35.4536 9.60203C34.5254 10.3279 33.6293 11.0728 32.7579 11.8331C33.7282 10.647 36.2479 6.97569 36.7149 0.367188C36.7149 0.367188 30.2043 9.27666 32.3346 12.207C30.7537 13.6123 29.266 15.0777 27.8694 16.612C28.9968 14.4405 30.6999 9.89783 30.0753 3.03328C30.0753 3.03328 23.782 14.4575 26.7517 17.8743C25.472 19.3659 24.2732 20.9215 23.1506 22.5455C24.0046 20.488 25.4913 15.0763 22.3845 6.7313C22.3845 6.7313 17.4509 20.1718 22.5731 23.4009C21.2696 25.3615 20.0724 27.4199 18.9798 29.5895C19.554 27.3826 20.3386 21.662 16.2686 13.6967C16.2686 13.6967 12.6409 27.0669 18.524 30.5128C17.4795 32.6731 16.5339 34.9416 15.6804 37.3254C16.1052 34.8067 16.6149 28.1124 11.3656 23.0571C11.3656 23.0571 7.75923 33.7036 15.3458 38.2672C14.5821 40.4895 13.8983 42.8147 13.2859 45.2452C13.4192 42.8152 12.8693 37.3599 6.71228 31.1281C6.71228 31.1281 4.47874 42.4603 12.9707 46.5225C12.4135 48.8661 11.9218 51.3082 11.4931 53.855C11.401 54.4049 11.3268 54.9548 11.2604 55.5037C11.3981 53.8928 11.4218 47.6717 4.46322 42.4598C4.46322 42.4598 3.22861 53.8356 11.2119 55.9037C10.9621 58.1606 10.9287 60.4072 11.0708 62.6257C10.3671 60.2797 7.83099 53.9655 0.54214 52.0961C0.54214 52.0961 2.31065 64.0296 11.1343 63.5199C11.3544 66.073 11.8132 68.5826 12.463 71.0231C11.6822 69.112 8.9148 64.4626 0 62.2659C0 62.2659 6.0814 74.7352 12.7001 71.8872C13.4503 74.5034 14.4182 77.0308 15.5485 79.436C14.4638 77.6855 10.9878 73.7765 1.4567 73.454C1.4567 73.454 8.25336 84.1218 15.9563 80.288C17.157 82.7281 18.5216 85.0301 19.9894 87.1603C18.5642 85.7899 14.3154 82.893 4.77744 84.3332C4.77744 84.3332 14.537 93.297 20.4976 87.8921C22.2026 90.2808 24.0337 92.4285 25.9001 94.2858C24.3314 93.0507 19.3862 90.1639 9.8987 93.0196C9.8987 93.0196 21.9388 100.924 26.4428 94.8148C28.5022 96.7928 30.5908 98.4032 32.593 99.5714C30.2669 98.5924 25.1694 97.5871 16.8394 101.618C16.8394 101.618 29.8469 107.549 34.0939 100.418C44.1191 106.073 45.7751 109.977 45.7873 110.025C45.8823 110.229 46.1189 110.32 46.3328 110.234C46.5437 110.133 46.6456 109.875 46.5602 109.65C46.4894 109.482 44.83 105.424 34.2835 99.5156Z" fill="url(#paint0_linear_512_598)"/>
</g>
<defs>
<linearGradient id="paint0_linear_512_598" x1="23.3027" y1="0.367187" x2="23.3027" y2="110.267" gradientUnits="userSpaceOnUse">
<stop stop-color="#543DE7"/>
<stop offset="1" stop-color="#7F39F8"/>
</linearGradient>
<clipPath id="clip0_512_598">
<rect width="47" height="111" fill="white"/>
</clipPath>
</defs>
</svg>
